# xmcd CD Database Entry
#
# Track frame offsets:
# 150
# 64301
# 81996
# 97426
# 114340
# 130260
# 147322
# 163741
# 183001
# 199113
# 220057
# 246115
# 266769
# 279518
# 294527
#
# Disc length: 4439 seconds
#
# Revision: 1
# Processed by: cddbd v1.4PL0 Copyright (c) Steve Scherf et al.
# Submitted via: tcd 2.0b
#
DISCID=ec11550f
DTITLE=Claude Bolling Big Band - Duke Ellington "A Tone Parallel to 
DTITLE=Harlem"
DYEAR=1900
DGENRE=
TTITLE0=Harlem - A tone parallel to Harlem
TTITLE1=Ring Dem Bells
TTITLE2=Things Ain't What They Used to Be - Time's a Wastin'
TTITLE3=Crole Love Call
TTITLE4=Drop Me Off in Harlme
TTITLE5=It Don't Mean a Thing (if it ain't got that swing)
TTITLE6=Just Squeeze Me (but please don't tease me)
TTITLE7=Caravan
TTITLE8=Harlem Air Shart
TTITLE9=Moon Mist
TTITLE10=Jungle Traps
TTITLE11=Duke on My Mind
TTITLE12=Lot O'Fingers
TTITLE13=Magenta Haze
TTITLE14=Diminuendo In Blu - Blow by Blow - Crescendo
EXTD=
EXTT0=
EXTT1=
EXTT2=
EXTT3=
EXTT4=
EXTT5=
EXTT6=
EXTT7=
EXTT8=
EXTT9=
EXTT10=
EXTT11=
EXTT12=
EXTT13=
EXTT14=
PLAYORDER=
